# xmcd
#
# Track frame offsets:
#	150
#	12527
#	24908
#	34452
#	46247
#	56626
#	67687
#	77372
#	92326
#	104811
#	119825
#	143121
#	156605
#	167940
#	180552
#
# Disc length: 2597 seconds
#
# Revision: 1
# Processed by: cddbd v1.5.2PL0 Copyright (c) Steve Scherf et al.
# Submitted via: audiograbber 1.83.01
#
DISCID=ca0a230f
DTITLE=Various Artist - 80092
DYEAR=2002
DGENRE=Country
TTITLE0=Johnny Horton - Battle Of New Orleans, The
TTITLE1=Don Gibson - Oh, Lonesome Me
TTITLE2=Johnny Cash - Guess Things Happen That Way
TTITLE3=Conway Twitty - It's Only Make Believe
TTITLE4=Faron Young - Alone With You
TTITLE5=Johnny Cash - Ballad Of A Teenage Queen
TTITLE6=Don Gibson - Blue, Blue Day
TTITLE7=Ray Price - City Lights
TTITLE8=Marty Robbins - Story Of My Life, The
TTITLE9=Johnny Cash - Don't Take Your Guns To Town
TTITLE10=Marty Robbins - El Paso
TTITLE11=Ray Price - Same Old Me, The
TTITLE12=Stonewall Jackson - Waterloo
TTITLE13=George Jones - White Lightnin'
TTITLE14=Browns, The - Three Bells, The
EXTD=1958-1959 Country Time Line
EXTT0=
EXTT1=
EXTT2=
EXTT3=
EXTT4=
EXTT5=
EXTT6=
EXTT7=
EXTT8=
EXTT9=
EXTT10=
EXTT11=
EXTT12=
EXTT13=
EXTT14=
PLAYORDER=
